<?xml version="1.0" encoding="UTF-8"?>
<svg version="1.1" xmlns="http://www.w3.org/2000/svg" width="112" height="112">
<path d="M0 0 C7.31283986 5.26214932 12.03260438 11.40590481 14.25 20.25 C14.54020222 23.94773797 14.50311753 27.55167168 14.25 31.25 C14.87519531 31.38921875 15.50039062 31.5284375 16.14453125 31.671875 C18.72094752 32.37931398 19.651481 33.11864134 21.25 35.25 C22.25 37.5625 22.25 37.5625 22.25 40.25 C19.95220589 43.49394463 17.66779316 45.88315722 14.6875 48.5 C10.87101273 52.80578051 8.32083095 57.72616009 8.203125 63.58203125 C9.1215752 69.28241241 12.06007912 72.82946233 15.6796875 77.18359375 C17.76216695 79.92397094 18.48514789 81.80116424 18.25 85.25 C17 88.125 17 88.125 14.25 90.25 C8.44137001 91.38604158 3.42896472 90.47138656 -2 88.3125 C-8.94598038 85.73152945 -15.75505192 85.7387856 -23.07543945 85.54541016 C-31.09327912 85.32858748 -38.83444634 84.53799688 -46.75 83.25 C-46.9975 84.343125 -47.245 85.43625 -47.5 86.5625 C-48.75 90.25 -48.75 90.25 -50.5625 92.1953125 C-53.2426115 93.48750912 -54.80880434 93.47471534 -57.75 93.125 C-58.595625 93.03992188 -59.44125 92.95484375 -60.3125 92.8671875 C-63.14108371 92.1509756 -64.65706918 91.27752673 -66.75 89.25 C-68.1184111 85.94420686 -67.81683009 82.47339949 -67.875 78.9375 C-68.19564093 74.29337809 -68.50360162 71.72590806 -72 68.5625 C-72.89996704 67.82785522 -72.89996704 67.82785522 -73.81811523 67.07836914 C-78.06560839 63.05846818 -80.42010031 57.86632719 -81.14794922 52.09399414 C-81.23959206 48.75695645 -81.18855854 45.46070286 -81.0625 42.125 C-81.03994141 40.97773437 -81.01738281 39.83046875 -80.99414062 38.6484375 C-80.93578878 35.84754886 -80.85398152 33.04950251 -80.75 30.25 C-78.19597459 33.43780986 -77.49146802 34.96201771 -77.5625 39.0625 C-77.35450928 42.40520793 -77.08020798 43.85304785 -74.9140625 46.45703125 C-72.92138419 48.17353134 -70.91610719 49.75987614 -68.75 51.25 C-66.36656716 42.73280055 -66.36656716 42.73280055 -68.2109375 34.4921875 C-70.13149167 32.17690086 -70.13149167 32.17690086 -72.24609375 30.21484375 C-73.75 28.25 -73.75 28.25 -73.5859375 25.66015625 C-72.39768553 22.23421483 -70.71299542 20.23577072 -67.75 18.25 C-65.80657832 17.44230844 -63.84608532 16.67511516 -61.875 15.9375 C-56.56747282 13.87418259 -53.84402476 11.67196301 -50.37890625 7.23828125 C-38.27742524 -7.53307086 -15.70227167 -9.80408949 0 0 Z " fill="#E1E6EE" transform="translate(80.75,15.75)"/>
<path d="M0 0 C7.31283986 5.26214932 12.03260438 11.40590481 14.25 20.25 C14.54020222 23.94773797 14.50311753 27.55167168 14.25 31.25 C14.87519531 31.38921875 15.50039062 31.5284375 16.14453125 31.671875 C18.72094752 32.37931398 19.651481 33.11864134 21.25 35.25 C22.25 37.5625 22.25 37.5625 22.25 40.25 C19.95220589 43.49394463 17.66779316 45.88315722 14.6875 48.5 C10.87101273 52.80578051 8.32083095 57.72616009 8.203125 63.58203125 C9.1215752 69.28241241 12.06007912 72.82946233 15.6796875 77.18359375 C17.76216695 79.92397094 18.48514789 81.80116424 18.25 85.25 C17 88.125 17 88.125 14.25 90.25 C8.44137001 91.38604158 3.42896472 90.47138656 -2 88.3125 C-8.94598038 85.73152945 -15.75505192 85.7387856 -23.07543945 85.54541016 C-31.09327912 85.32858748 -38.83444634 84.53799688 -46.75 83.25 C-46.9975 84.343125 -47.245 85.43625 -47.5 86.5625 C-48.75 90.25 -48.75 90.25 -50.5625 92.1953125 C-53.2426115 93.48750912 -54.80880434 93.47471534 -57.75 93.125 C-58.595625 93.03992188 -59.44125 92.95484375 -60.3125 92.8671875 C-63.14108371 92.1509756 -64.65706918 91.27752673 -66.75 89.25 C-68.1184111 85.94420686 -67.81683009 82.47339949 -67.875 78.9375 C-68.19564093 74.29337809 -68.50360162 71.72590806 -72 68.5625 C-72.89996704 67.82785522 -72.89996704 67.82785522 -73.81811523 67.07836914 C-78.06560839 63.05846818 -80.42010031 57.86632719 -81.14794922 52.09399414 C-81.23959206 48.75695645 -81.18855854 45.46070286 -81.0625 42.125 C-81.03994141 40.97773437 -81.01738281 39.83046875 -80.99414062 38.6484375 C-80.93578878 35.84754886 -80.85398152 33.04950251 -80.75 30.25 C-78.19597459 33.43780986 -77.49146802 34.96201771 -77.5625 39.0625 C-77.35450928 42.40520793 -77.08020798 43.85304785 -74.9140625 46.45703125 C-72.92138419 48.17353134 -70.91610719 49.75987614 -68.75 51.25 C-66.36656716 42.73280055 -66.36656716 42.73280055 -68.2109375 34.4921875 C-70.13149167 32.17690086 -70.13149167 32.17690086 -72.24609375 30.21484375 C-73.75 28.25 -73.75 28.25 -73.5859375 25.66015625 C-72.39768553 22.23421483 -70.71299542 20.23577072 -67.75 18.25 C-65.80657832 17.44230844 -63.84608532 16.67511516 -61.875 15.9375 C-56.56747282 13.87418259 -53.84402476 11.67196301 -50.37890625 7.23828125 C-38.27742524 -7.53307086 -15.70227167 -9.80408949 0 0 Z M-22.75 18.75 C-23.42933594 19.08386719 -24.10867187 19.41773438 -24.80859375 19.76171875 C-26.46271274 20.57712952 -28.10741507 21.41159728 -29.75 22.25 C-29.255 23.24 -29.255 23.24 -28.75 24.25 C-27.35461746 24.30472088 -25.95859103 24.34311538 -24.5625 24.375 C-23.39654297 24.40980469 -23.39654297 24.40980469 -22.20703125 24.4453125 C-19.69015051 24.36856485 -19.69015051 24.36856485 -17.2890625 23.2578125 C-11.84245063 21.09592656 -5.61556275 21.74408468 -0.0625 23.25 C0.700625 23.58 1.46375 23.91 2.25 24.25 C1.816875 24.94867188 1.38375 25.64734375 0.9375 26.3671875 C0.380625 27.27726562 -0.17625 28.18734375 -0.75 29.125 C-1.306875 30.02992187 -1.86375 30.93484375 -2.4375 31.8671875 C-3.91082329 34.08857467 -3.91082329 34.08857467 -3.75 36.25 C-7.94365752 38.28328849 -11.12800407 39.11172805 -15.75 38.25 C-18.74515519 35.52659459 -21.19427707 32.38101514 -23.75 29.25 C-27.6623568 24.7726016 -27.6623568 24.7726016 -33.12890625 23.02734375 C-34.84109288 23.09269438 -36.55244452 23.18537549 -38.26171875 23.3046875 C-41.74921915 23.22803914 -43.95639017 21.85240893 -46.921875 20.140625 C-49.55526741 18.85769024 -51.88178542 18.96317854 -54.75 19.25 C-55.53282648 21.04199472 -55.53282648 21.04199472 -55.75 23.25 C-53.72329751 27.18418719 -50.68986084 28.49895074 -46.75 30.25 C-49.95254147 28.64872926 -52.20314564 28.84298393 -55.75 29.25 C-59.37671551 31.42020326 -62.04974172 34.00863304 -64.125 37.6875 C-65.45571488 43.143431 -65.87731832 48.50688126 -65.8828125 54.109375 C-65.88410156 55.39070313 -65.88539062 56.67203125 -65.88671875 57.9921875 C-65.88462402 58.65186523 -65.8825293 59.31154297 -65.88037109 59.99121094 C-65.8750505 61.9811138 -65.88083147 63.97103623 -65.88671875 65.9609375 C-65.88083158 71.83633482 -65.81941474 77.71099799 -65.4921875 83.578125 C-65.42427002 84.86831543 -65.42427002 84.86831543 -65.35498047 86.18457031 C-64.94086447 88.41682259 -64.94086447 88.41682259 -62.84667969 89.52319336 C-60.50230817 90.3358615 -58.60373763 90.55006486 -56.125 90.5625 C-55.34898438 90.57925781 -54.57296875 90.59601563 -53.7734375 90.61328125 C-53.10570312 90.49339844 -52.43796875 90.37351562 -51.75 90.25 C-49.8049 87.33235 -49.29723683 85.62462715 -48.75 82.25 C-47.08343119 82.22242809 -45.41672149 82.20335197 -43.75 82.1875 C-42.821875 82.17589844 -41.89375 82.16429688 -40.9375 82.15234375 C-37.93013749 82.24448108 -35.03544119 82.61009911 -32.05712891 83.01147461 C-29.40129681 83.28605111 -26.77479075 83.36738567 -24.10546875 83.42578125 C-23.09806641 83.44962891 -22.09066406 83.47347656 -21.05273438 83.49804688 C-18.98783568 83.54076892 -16.92266905 83.5721528 -14.85742188 83.59179688 C-8.35244293 83.77007227 -3.13365013 84.85297487 2.8815918 87.36254883 C6.26703102 88.63108522 8.67555055 88.69680618 12.25 88.25 C13.24 87.59 14.23 86.93 15.25 86.25 C15.01023414 80.49561939 13.3820538 77.55918529 9.72265625 73.14453125 C6.34209998 68.79553977 5.75521703 65.27822402 5.8671875 59.84765625 C6.979279 52.30132106 13.05009503 46.94465682 18.625 42.25 C20.53618552 40.33972238 20.53618552 40.33972238 20.1875 37.625 C19.38344454 34.92710239 19.38344454 34.92710239 16.25 33.25 C14.09725052 33.55840599 14.09725052 33.55840599 12.25 34.25 C12.25 35.24 12.25 36.23 12.25 37.25 C11.59 37.25 10.93 37.25 10.25 37.25 C10.745 35.765 10.745 35.765 11.25 34.25 C11.31740865 32.68881572 11.33514456 31.1249748 11.3125 29.5625 C11.30347656 28.75425781 11.29445313 27.94601563 11.28515625 27.11328125 C11.27355469 26.49839844 11.26195313 25.88351563 11.25 25.25 C10.074375 24.9715625 10.074375 24.9715625 8.875 24.6875 C4.5402041 22.96852921 1.17502497 20.54384396 -2.578125 17.80859375 C-9.36395408 12.93890705 -15.95619552 15.25179849 -22.75 18.75 Z " fill="#6C8FCA" transform="translate(80.75,15.75)"/>
<path d="M0 0 C4.71860486 2.44219684 9.23150182 5.23150182 13 9 C15.57061311 9.64767793 15.57061311 9.64767793 18 10 C18.02712066 11.43739513 18.04645067 12.87493863 18.0625 14.3125 C18.07410156 15.11300781 18.08570312 15.91351563 18.09765625 16.73828125 C18 19 18 19 17 22 C17.66 22.33 18.32 22.66 19 23 C14.88147473 27.94223033 10.18285056 30.27073398 4 32 C1.1875 32.10546875 1.1875 32.10546875 -1 32 C-1.28875 32.639375 -1.5775 33.27875 -1.875 33.9375 C-3 36 -3 36 -5 37 C-7.3329866 37.04022391 -9.66706666 37.04320247 -12 37 C-12.495 35.02 -12.495 35.02 -13 33 C-13.886875 32.9175 -14.77375 32.835 -15.6875 32.75 C-22.43750391 31.78374177 -29.82916272 29.95488198 -35.6484375 26.3671875 C-38.12298494 24.6649197 -38.12298494 24.6649197 -42 25 C-42.99 26.98 -43.98 28.96 -45 31 C-45.66 31 -46.32 31 -47 31 C-47 29.68 -47 28.36 -47 27 C-47.66 27 -48.32 27 -49 27 C-48.9278125 27.7528125 -48.855625 28.505625 -48.78125 29.28125 C-46.75016852 52.52584919 -46.75016852 52.52584919 -49 60.3125 C-50.33832915 65.24758876 -50.16810729 69.91942425 -50 75 C-56.875 74.125 -56.875 74.125 -58 73 C-59.3486127 64.40564937 -59.18317861 55.61053335 -59.1875 46.9375 C-59.19974609 45.64005859 -59.21199219 44.34261719 -59.22460938 43.00585938 C-59.25423796 23.52012783 -59.25423796 23.52012783 -52.4375 16.27734375 C-49.193422 13.39469835 -46.18360602 13.92252581 -42 14 C-42.78375 13.566875 -43.5675 13.13375 -44.375 12.6875 C-47 11 -47 11 -49 8 C-48.625 5.8125 -48.625 5.8125 -48 4 C-44.02889209 3.60288921 -41.6363796 4.04526055 -38.25 6 C-34.89778211 7.86730008 -32.9198924 8.08602318 -29.125 7.6875 C-24.30164924 7.45710882 -22.25304992 8.94090564 -18.6875 12.125 C-15.97775688 14.79675607 -13.56073629 17.49872702 -11.3125 20.5625 C-9.14879717 23.34828951 -9.14879717 23.34828951 -5.5 23.5 C-1.00828818 22.90402559 -1.00828818 22.90402559 3 21 C4.12949221 18.19623648 4.12949221 18.19623648 5 15 C6.28072371 12.9659094 7.60287726 10.95597184 9 9 C3.47227563 6.60963271 -2.07172533 6.41321299 -8 7 C-9.66843101 7.66223877 -11.33516204 8.32877962 -13 9 C-15.45703125 9.1953125 -15.45703125 9.1953125 -17.8125 9.125 C-18.99779297 9.09792969 -18.99779297 9.09792969 -20.20703125 9.0703125 C-20.79871094 9.04710937 -21.39039063 9.02390625 -22 9 C-22.495 8.01 -22.495 8.01 -23 7 C-21.43880578 6.20576139 -19.87598036 5.41472877 -18.3125 4.625 C-17.00732422 3.96371094 -17.00732422 3.96371094 -15.67578125 3.2890625 C-10.49489384 0.79316054 -5.82088796 -1.31848972 0 0 Z " fill="#6F90CA" transform="translate(74,31)"/>
<path d="M0 0 C7.31283986 5.26214932 12.03260438 11.40590481 14.25 20.25 C14.54020222 23.94773797 14.50311753 27.55167168 14.25 31.25 C14.87519531 31.38921875 15.50039062 31.5284375 16.14453125 31.671875 C18.72094752 32.37931398 19.651481 33.11864134 21.25 35.25 C22.25 37.5625 22.25 37.5625 22.25 40.25 C19.95220589 43.49394463 17.66779316 45.88315722 14.6875 48.5 C10.87101273 52.80578051 8.32083095 57.72616009 8.203125 63.58203125 C9.1215752 69.28241241 12.06007912 72.82946233 15.6796875 77.18359375 C17.76216695 79.92397094 18.48514789 81.80116424 18.25 85.25 C17 88.125 17 88.125 14.25 90.25 C8.44137001 91.38604158 3.42896472 90.47138656 -2 88.3125 C-8.94598038 85.73152945 -15.75505192 85.7387856 -23.07543945 85.54541016 C-31.09327912 85.32858748 -38.83444634 84.53799688 -46.75 83.25 C-46.9975 84.343125 -47.245 85.43625 -47.5 86.5625 C-48.75 90.25 -48.75 90.25 -50.5625 92.1953125 C-53.2426115 93.48750912 -54.80880434 93.47471534 -57.75 93.125 C-58.595625 93.03992188 -59.44125 92.95484375 -60.3125 92.8671875 C-63.14108371 92.1509756 -64.65706918 91.27752673 -66.75 89.25 C-68.1184111 85.94420686 -67.81683009 82.47339949 -67.875 78.9375 C-68.19564093 74.29337809 -68.50360162 71.72590806 -72 68.5625 C-72.89996704 67.82785522 -72.89996704 67.82785522 -73.81811523 67.07836914 C-78.06560839 63.05846818 -80.42010031 57.86632719 -81.14794922 52.09399414 C-81.23959206 48.75695645 -81.18855854 45.46070286 -81.0625 42.125 C-81.03994141 40.97773437 -81.01738281 39.83046875 -80.99414062 38.6484375 C-80.93578878 35.84754886 -80.85398152 33.04950251 -80.75 30.25 C-78.19597459 33.43780986 -77.49146802 34.96201771 -77.5625 39.0625 C-77.35450928 42.40520793 -77.08020798 43.85304785 -74.9140625 46.45703125 C-72.92138419 48.17353134 -70.91610719 49.75987614 -68.75 51.25 C-66.36656716 42.73280055 -66.36656716 42.73280055 -68.2109375 34.4921875 C-70.13149167 32.17690086 -70.13149167 32.17690086 -72.24609375 30.21484375 C-73.75 28.25 -73.75 28.25 -73.5859375 25.66015625 C-72.39768553 22.23421483 -70.71299542 20.23577072 -67.75 18.25 C-65.80657832 17.44230844 -63.84608532 16.67511516 -61.875 15.9375 C-56.56747282 13.87418259 -53.84402476 11.67196301 -50.37890625 7.23828125 C-38.27742524 -7.53307086 -15.70227167 -9.80408949 0 0 Z M-38.75 1.25 C-39.78125 1.86875 -40.8125 2.4875 -41.875 3.125 C-47.92568144 7.59724281 -52.69026669 11.85284448 -56.75 18.25 C-56.75 18.91 -56.75 19.57 -56.75 20.25 C-57.41 20.25 -58.07 20.25 -58.75 20.25 C-60.17500059 24.24000166 -61.15075776 28.05530429 -61.75 32.25 C-61.24210937 31.94964844 -60.73421875 31.64929687 -60.2109375 31.33984375 C-56.55979483 29.32282673 -54.50819226 28.19584341 -50.25 28.5 C-49.425 28.7475 -48.6 28.995 -47.75 29.25 C-49.13067013 29.25 -50.50416461 29.03950025 -51.875 28.875 C-57.03324926 29.37418541 -59.39508819 31.43140119 -62.75 35.25 C-65.93305862 40.89269482 -65.87659215 47.76639877 -65.8828125 54.109375 C-65.88410156 55.39070313 -65.88539062 56.67203125 -65.88671875 57.9921875 C-65.88462402 58.65186523 -65.8825293 59.31154297 -65.88037109 59.99121094 C-65.8750505 61.9811138 -65.88083147 63.97103623 -65.88671875 65.9609375 C-65.88083158 71.83633482 -65.81941474 77.71099799 -65.4921875 83.578125 C-65.42427002 84.86831543 -65.42427002 84.86831543 -65.35498047 86.18457031 C-64.94086447 88.41682259 -64.94086447 88.41682259 -62.84667969 89.52319336 C-60.50230817 90.3358615 -58.60373763 90.55006486 -56.125 90.5625 C-55.34898438 90.57925781 -54.57296875 90.59601563 -53.7734375 90.61328125 C-53.10570312 90.49339844 -52.43796875 90.37351562 -51.75 90.25 C-49.8049 87.33235 -49.29723683 85.62462715 -48.75 82.25 C-47.08343119 82.22242809 -45.41672149 82.20335197 -43.75 82.1875 C-42.821875 82.17589844 -41.89375 82.16429688 -40.9375 82.15234375 C-37.93013749 82.24448108 -35.03544119 82.61009911 -32.05712891 83.01147461 C-29.40129681 83.28605111 -26.77479075 83.36738567 -24.10546875 83.42578125 C-23.09806641 83.44962891 -22.09066406 83.47347656 -21.05273438 83.49804688 C-18.98783568 83.54076892 -16.92266905 83.5721528 -14.85742188 83.59179688 C-8.35244293 83.77007227 -3.13365013 84.85297487 2.8815918 87.36254883 C6.26703102 88.63108522 8.67555055 88.69680618 12.25 88.25 C13.24 87.59 14.23 86.93 15.25 86.25 C15.01023414 80.49561939 13.3820538 77.55918529 9.72265625 73.14453125 C6.34209998 68.79553977 5.75521703 65.27822402 5.8671875 59.84765625 C6.979279 52.30132106 13.05009503 46.94465682 18.625 42.25 C20.53618552 40.33972238 20.53618552 40.33972238 20.1875 37.625 C19.38344454 34.92710239 19.38344454 34.92710239 16.25 33.25 C14.09725052 33.55840599 14.09725052 33.55840599 12.25 34.25 C12.25 35.24 12.25 36.23 12.25 37.25 C11.59 37.25 10.93 37.25 10.25 37.25 C10.58 36.26 10.91 35.27 11.25 34.25 C11.31740865 32.68881572 11.33514456 31.1249748 11.3125 29.5625 C11.30347656 28.75425781 11.29445313 27.94601563 11.28515625 27.11328125 C11.27355469 26.49839844 11.26195313 25.88351563 11.25 25.25 C10.321875 25.023125 9.39375 24.79625 8.4375 24.5625 C5.25 23.25 5.25 23.25 3.3125 20.9375 C2.0699721 17.7946353 2.06080639 16.39286882 3.25 13.25 C4.24 12.59 5.23 11.93 6.25 11.25 C3.56027112 5.24983557 -1.27762913 1.6889225 -7.125 -1.125 C-17.07918281 -4.75301762 -29.73120229 -4.49824469 -38.75 1.25 Z " fill="#0C1B48" transform="translate(80.75,15.75)"/>
<path d="M0 0 C4.71860486 2.44219684 9.23150182 5.23150182 13 9 C15.57061311 9.64767793 15.57061311 9.64767793 18 10 C18.33743667 14.30231749 18.49155937 17.86941346 16.75 21.875 C7.98276234 28.64968364 -5.42376121 27.86896937 -16 27 C-25.60407937 25.50911403 -35.13549513 21.9589709 -41 14 C-42.98387708 12.96838392 -44.98276656 11.96476382 -47 11 C-49 8 -49 8 -48.625 5.8125 C-48.41875 5.214375 -48.2125 4.61625 -48 4 C-44.02889209 3.60288921 -41.6363796 4.04526055 -38.25 6 C-34.89778211 7.86730008 -32.9198924 8.08602318 -29.125 7.6875 C-24.30164924 7.45710882 -22.25304992 8.94090564 -18.6875 12.125 C-15.97775688 14.79675607 -13.56073629 17.49872702 -11.3125 20.5625 C-9.14879717 23.34828951 -9.14879717 23.34828951 -5.5 23.5 C-1.00828818 22.90402559 -1.00828818 22.90402559 3 21 C4.12949221 18.19623648 4.12949221 18.19623648 5 15 C6.28072371 12.9659094 7.60287726 10.95597184 9 9 C3.47227563 6.60963271 -2.07172533 6.41321299 -8 7 C-9.66843101 7.66223877 -11.33516204 8.32877962 -13 9 C-15.45703125 9.1953125 -15.45703125 9.1953125 -17.8125 9.125 C-18.60269531 9.10695313 -19.39289062 9.08890625 -20.20703125 9.0703125 C-20.79871094 9.04710937 -21.39039062 9.02390625 -22 9 C-22.33 8.34 -22.66 7.68 -23 7 C-21.43880578 6.20576139 -19.87598036 5.41472877 -18.3125 4.625 C-17.00732422 3.96371094 -17.00732422 3.96371094 -15.67578125 3.2890625 C-10.49489384 0.79316054 -5.82088796 -1.31848972 0 0 Z " fill="#E1E5ED" transform="translate(74,31)"/>
<path d="M0 0 C5.79085101 4.13339896 10.92095152 9.40842009 13.25 16.25 C12.375 19.5 12.375 19.5 11.25 22.25 C11.745 23.24 11.745 23.24 12.25 24.25 C12.29022391 26.5829866 12.29320247 28.91706666 12.25 31.25 C11.92 31.25 11.59 31.25 11.25 31.25 C11.25 29.27 11.25 27.29 11.25 25.25 C10.5075 25.353125 9.765 25.45625 9 25.5625 C6.25 25.25 6.25 25.25 4 23.125 C2.08987982 19.98694542 1.32977696 17.91974002 1.25 14.25 C2.5625 12.375 2.5625 12.375 4.25 11.25 C4.91 11.25 5.57 11.25 6.25 11.25 C1.03766209 4.53911494 -4.20462755 -0.16426078 -12.75 -1.75 C-26.33259134 -2.62518376 -26.33259134 -2.62518376 -38.75 2.25 C-40.3278125 3.2090625 -40.3278125 3.2090625 -41.9375 4.1875 C-42.865625 4.868125 -43.79375 5.54875 -44.75 6.25 C-45.74 6.971875 -46.73 7.69375 -47.75 8.4375 C-51.1005037 11.24134257 -53.20356703 14.75009836 -55.453125 18.45703125 C-55.88109375 19.04871094 -56.3090625 19.64039062 -56.75 20.25 C-57.41 20.25 -58.07 20.25 -58.75 20.25 C-58.688125 21.3946875 -58.688125 21.3946875 -58.625 22.5625 C-58.75 25.25 -58.75 25.25 -60.75 28.25 C-60.75 29.24 -60.75 30.23 -60.75 31.25 C-60.234375 30.775625 -59.71875 30.30125 -59.1875 29.8125 C-55.98184073 27.75759021 -53.53825503 27.38529482 -49.75 27.25 C-47.3125 28.6875 -47.3125 28.6875 -45.75 30.25 C-46.08 30.91 -46.41 31.57 -46.75 32.25 C-47.41 31.59 -48.07 30.93 -48.75 30.25 C-52.12988601 29.78609408 -54.64505459 29.568617 -57.625 31.40625 C-58.8029736 32.32019504 -59.955317 33.26852499 -61.07421875 34.25390625 C-62.75 35.25 -62.75 35.25 -64.78515625 35.06640625 C-68.06622678 33.70309861 -70.03573102 31.26173531 -71.75 28.25 C-72.4375 24.625 -72.4375 24.625 -71.75 21.25 C-68.4007949 18.16520583 -65.06667647 17.00032789 -60.8125 15.5 C-55.98342697 13.66654028 -53.62454703 11.25555082 -50.44921875 7.2734375 C-38.13993519 -7.38451395 -15.87119546 -9.90956111 0 0 Z " fill="#0C1B49" transform="translate(80.75,15.75)"/>
<path d="M0 0 C1.00417969 0.60328125 2.00835937 1.2065625 3.04296875 1.828125 C16.88785602 9.70377194 32.56476635 11.22247929 47.9375 7.625 C51.19706768 6.71727229 53.14739495 5.9017367 56 4 C56.99 4.99 56.99 4.99 58 6 C53.88147473 10.94223033 49.18285056 13.27073398 43 15 C40.1875 15.10546875 40.1875 15.10546875 38 15 C37.566875 15.9590625 37.566875 15.9590625 37.125 16.9375 C36 19 36 19 34 20 C31.6670134 20.04022391 29.33293334 20.04320247 27 20 C26.505 18.02 26.505 18.02 26 16 C25.113125 15.9175 24.22625 15.835 23.3125 15.75 C16.56249609 14.78374177 9.17083728 12.95488198 3.3515625 9.3671875 C0.87701506 7.6649197 0.87701506 7.6649197 -3 8 C-5.26877535 10.41880929 -5.26877535 10.41880929 -7 13 C-6.5818299 8.12134885 -4.45965662 6.28667379 -1 3 C-0.67 2.01 -0.34 1.02 0 0 Z " fill="#A84989" transform="translate(35,48)"/>
<path d="M0 0 C4.69573843 0.03061107 8.46615182 0.61990953 12.875 2.1875 C11.96738938 3.94221386 11.04849289 5.69109264 10.125 7.4375 C9.61453125 8.41203125 9.1040625 9.3865625 8.578125 10.390625 C6.52258004 13.7662447 4.44490634 16.40254683 0.875 18.1875 C-2.25 18.8125 -2.25 18.8125 -6.125 18.1875 C-9.16604793 15.48626614 -11.58853198 12.35543182 -14.125 9.1875 C-15.10705095 8.16986749 -16.10359422 7.16562588 -17.125 6.1875 C-17.785 5.5275 -18.445 4.8675 -19.125 4.1875 C-19.125 3.8575 -19.125 3.5275 -19.125 3.1875 C-17.73474609 2.98833984 -17.73474609 2.98833984 -16.31640625 2.78515625 C-15.11886719 2.60855469 -13.92132813 2.43195312 -12.6875 2.25 C-11.49253906 2.07597656 -10.29757813 1.90195312 -9.06640625 1.72265625 C-5.51630762 1.07675517 -3.83990952 0.02615742 0 0 Z " fill="#9E4074" transform="translate(71.125,36.8125)"/>
<path d="M0 0 C0.99 0.66 1.98 1.32 3 2 C-1.11852527 6.94223033 -5.81714944 9.27073398 -12 11 C-14.8125 11.10546875 -14.8125 11.10546875 -17 11 C-17.28875 11.639375 -17.5775 12.27875 -17.875 12.9375 C-19 15 -19 15 -21 16 C-23.3329866 16.04022391 -25.66706666 16.04320247 -28 16 C-28.95424266 12.96377335 -29.15381215 11.41368027 -28.03125 8.39453125 C-25.5598256 5.4811021 -23.80718553 5.30885596 -20.08398438 4.99609375 C-19.33439453 4.95613281 -18.58480469 4.91617188 -17.8125 4.875 C-8.20679255 4.40130025 -8.20679255 4.40130025 0 0 Z " fill="#BF639F" transform="translate(90,52)"/>
<path d="M0 0 C2.06600136 3.09900203 2.198644 3.8634412 2.3125 7.375 C2.64609911 10.98021144 2.91182046 11.88732614 5.25 14.875 C7.84623215 17.06793801 7.84623215 17.06793801 10.65234375 18.12109375 C13 20 13 20 13.48828125 23.79296875 C13.45512197 25.25860885 13.39558979 26.72384139 13.3125 28.1875 C13.27866211 29.31188477 13.27866211 29.31188477 13.24414062 30.45898438 C13.18529157 32.3068447 13.09560938 34.15367667 13 36 C8.96852064 34.49929513 7.55615711 32.18014605 5.375 28.5625 C4.78460937 27.59441406 4.19421875 26.62632813 3.5859375 25.62890625 C3.06257812 24.76136719 2.53921875 23.89382812 2 23 C1.34 22.01 0.68 21.02 0 20 C-0.22705078 17.82348633 -0.22705078 17.82348633 -0.1953125 15.33203125 C-0.18564453 13.99301758 -0.18564453 13.99301758 -0.17578125 12.62695312 C-0.15902344 11.69818359 -0.14226563 10.76941406 -0.125 9.8125 C-0.11597656 8.87212891 -0.10695312 7.93175781 -0.09765625 6.96289062 C-0.07409056 4.64167032 -0.04119116 2.32096356 0 0 Z " fill="#6789C4" transform="translate(0,49)"/>
<path d="M0 0 C3.9523491 1.95010365 7.65039665 4.1245133 11 7 C11 7.99 11 8.98 11 10 C5.25 8.125 5.25 8.125 3 7 C1.23229673 6.87759865 -0.54060462 6.82448847 -2.3125 6.8125 C-3.72982422 6.79123047 -3.72982422 6.79123047 -5.17578125 6.76953125 C-8.1643562 7.01341219 -10.24180171 7.87645277 -13 9 C-15.45703125 9.1953125 -15.45703125 9.1953125 -17.8125 9.125 C-18.60269531 9.10695313 -19.39289062 9.08890625 -20.20703125 9.0703125 C-20.79871094 9.04710937 -21.39039063 9.02390625 -22 9 C-22.33 8.34 -22.66 7.68 -23 7 C-21.43880578 6.20576139 -19.87598036 5.41472877 -18.3125 4.625 C-17.00732422 3.96371094 -17.00732422 3.96371094 -15.67578125 3.2890625 C-10.48813259 0.78990329 -5.82796166 -1.30593121 0 0 Z " fill="#DCE1EB" transform="translate(74,31)"/>
<path d="M0 0 C0.66 0.66 1.32 1.32 2 2 C2.33 1.34 2.66 0.68 3 0 C4.98 0 6.96 0 9 0 C9.87491004 2.4497481 10.12900603 3.63448293 9.25 6.125 C8 8 8 8 5 10 C-0.06224066 10.74688797 -0.06224066 10.74688797 -3 10 C-5.49039758 7.99195311 -7.36058167 5.74478372 -9 3 C-9 2.34 -9 1.68 -9 1 C-5.75778445 -0.08073852 -3.39597063 -0.21676408 0 0 Z " fill="#F0759D" transform="translate(68,43)"/>
<path d="M0 0 C1.625 2.625 1.625 2.625 3 6 C2.125 9.25 2.125 9.25 1 12 C1.33 12.66 1.66 13.32 2 14 C2.04022391 16.3329866 2.04320247 18.66706666 2 21 C1.67 21 1.34 21 1 21 C1 19.02 1 17.04 1 15 C0.2575 15.103125 -0.485 15.20625 -1.25 15.3125 C-4 15 -4 15 -6.25 12.875 C-8.11609306 9.80927569 -8.67009575 7.54647066 -9 4 C-4.5 0 -4.5 0 0 0 Z " fill="#394A8D" transform="translate(91,26)"/>
<path d="M0 0 C0 3.42914406 -0.51877793 3.92637397 -2.5 6.5625 C-5.55687389 11.35364618 -6.20664512 15.43602526 -5 21 C-2.96402398 25.42824784 -0.34450085 29.3131494 2.6875 33.1171875 C4.36654006 35.52581045 4.23934718 37.12783389 4 40 C2.515 40.495 2.515 40.495 1 41 C0.443125 39.6078125 0.443125 39.6078125 -0.125 38.1875 C-2.01701701 33.74853701 -4.35736832 29.57191037 -6.6953125 25.35546875 C-9.39182628 20.48721183 -9.72901122 16.54858539 -9 11 C-7.07181101 6.39548469 -4.35119798 2.57848769 0 0 Z " fill="#6A8BC3" transform="translate(92,62)"/>
<path d="M0 0 C-1.63958758 5.23272633 -3.38952035 10.15196636 -6 15 C-8.31 13.35 -10.62 11.7 -13 10 C-11.83567264 5.34269056 -10.81758963 4.66343463 -7 2 C-4.26466879 0.39098164 -3.24114485 0 0 0 Z " fill="#607DB8" transform="translate(22,33)"/>
<path d="M0 0 C1.9375 1.0625 1.9375 1.0625 3 3 C2.6875 6.6875 2.6875 6.6875 2 10 C1.01 10 0.02 10 -1 10 C-1 9.34 -1 8.68 -1 8 C-1.66 7.67 -2.32 7.34 -3 7 C-3 5.35 -3 3.7 -3 2 C-4.98 2.66 -6.96 3.32 -9 4 C-8.67 6.31 -8.34 8.62 -8 11 C-6.35 11.33 -4.7 11.66 -3 12 C-3 12.33 -3 12.66 -3 13 C-5.74086056 13.22223194 -7.43963721 13.34781139 -9.8125 11.875 C-11.59827089 9.05536176 -11.53312947 7.26541798 -11 4 C-7.63551815 0.23969675 -4.98733481 -0.75894225 0 0 Z " fill="#12205F" transform="translate(49,26)"/>
<path d="M0 0 C1.27446435 3.82339305 0.34278151 5.27005137 -1 9 C-1.36106097 10.66088045 -1.70462173 12.32618981 -2 14 C-1.484375 13.525625 -0.96875 13.05125 -0.4375 12.5625 C2.76815927 10.50759021 5.21174497 10.13529482 9 10 C11.4375 11.4375 11.4375 11.4375 13 13 C12.67 13.66 12.34 14.32 12 15 C11.34 14.34 10.68 13.68 10 13 C6.62011399 12.53609408 4.10494541 12.318617 1.125 14.15625 C-0.0529736 15.07019504 -1.205317 16.01852499 -2.32421875 17.00390625 C-4 18 -4 18 -6.03515625 17.875 C-8.4654866 16.79270577 -9.30260142 15.64880339 -10.75 13.4375 C-11.17796875 12.79683594 -11.6059375 12.15617187 -12.046875 11.49609375 C-12.36140625 11.00238281 -12.6759375 10.50867187 -13 10 C-10.08482708 11.07401108 -8.22189824 11.77810176 -6 14 C-4.02 9.38 -2.04 4.76 0 0 Z " fill="#252858" transform="translate(22,33)"/>
<path d="M0 0 C3.55780196 0.60990891 6.6828589 1.5783681 10 3 C9.6875 4.875 9.6875 4.875 9 7 C5.3558226 9.4294516 3.28758728 9.16179575 -1 9 C-1.80967438 6.08517222 -2.21845993 4.53886783 -1.0625 1.6875 C-0.711875 1.130625 -0.36125 0.57375 0 0 Z " fill="#EDA63D" transform="translate(63,59)"/>
<path d="M0 0 C0 1.65 0 3.3 0 5 C0.99 5.33 1.98 5.66 3 6 C2.67 7.65 2.34 9.3 2 11 C-0.31 10.34 -2.62 9.68 -5 9 C-5.33 6.69 -5.66 4.38 -6 2 C-3 0 -3 0 0 0 Z " fill="#1C2D82" transform="translate(46,28)"/>
<path d="M0 0 C0.33 1.32 0.66 2.64 1 4 C-1.31 4.33 -3.62 4.66 -6 5 C-6 5.66 -6 6.32 -6 7 C-10.71346154 5.51153846 -10.71346154 5.51153846 -12.1640625 2.921875 C-12.43992188 2.28765625 -12.71578125 1.6534375 -13 1 C-11.58366664 0.83052421 -10.16691467 0.66454493 -8.75 0.5 C-7.56664062 0.36078125 -7.56664062 0.36078125 -6.359375 0.21875 C-4 0 -4 0 0 0 Z " fill="#7C497A" transform="translate(65,39)"/>
<path d="M0 0 C7.11559898 -0.93979609 10.94017264 1.32943254 16.875 5.17578125 C17.57625 5.77777344 18.2775 6.37976562 19 7 C19 7.99 19 8.98 19 10 C18.21625 9.71125 17.4325 9.4225 16.625 9.125 C12.1377242 7.73239716 7.614721 6.85728019 3 6 C3 5.67 3 5.34 3 5 C4.65 4.67 6.3 4.34 8 4 C7.67 3.01 7.34 2.02 7 1 C4.69 1 2.38 1 0 1 C0 0.67 0 0.34 0 0 Z " fill="#CDD4E3" transform="translate(66,31)"/>
<path d="M0 0 C3.465 1.98 3.465 1.98 7 4 C5.68 4.99 4.36 5.98 3 7 C4.98 7.99 6.96 8.98 9 10 C8.01 10.33 7.02 10.66 6 11 C4.32580562 10.0126546 2.65948148 9.01187895 1 8 C-0.32 8 -1.64 8 -3 8 C-5.26877535 10.41880929 -5.26877535 10.41880929 -7 13 C-6.5818299 8.12134885 -4.45965662 6.28667379 -1 3 C-0.67 2.01 -0.34 1.02 0 0 Z " fill="#713F77" transform="translate(35,48)"/>
<path d="M0 0 C0.99 0.66 1.98 1.32 3 2 C-1.11852527 6.94223033 -5.81714944 9.27073398 -12 11 C-15.88920332 11.24775666 -18.4513117 10.62225751 -22 9 C-22 8.34 -22 7.68 -22 7 C-19.69 7 -17.38 7 -15 7 C-15 7.66 -15 8.32 -15 9 C-13.41531323 8.54636829 -11.83230076 8.08688548 -10.25 7.625 C-9.36828125 7.36976562 -8.4865625 7.11453125 -7.578125 6.8515625 C-5.23919428 6.0790066 -3.16557438 5.16374324 -1 4 C-1 3.01 -1 2.02 -1 1 C-0.67 0.67 -0.34 0.34 0 0 Z " fill="#B2478C" transform="translate(90,52)"/>
<path d="M0 0 C0 0.66 0 1.32 0 2 C2.475 2.99 2.475 2.99 5 4 C4.67 4.99 4.34 5.98 4 7 C-2.50877193 7.36842105 -2.50877193 7.36842105 -4.75 5.6875 C-5.1625 5.130625 -5.575 4.57375 -6 4 C-6.556875 3.443125 -7.11375 2.88625 -7.6875 2.3125 C-8.120625 1.879375 -8.55375 1.44625 -9 1 C-6.04335481 -0.4783226 -3.25770263 -0.06032783 0 0 Z " fill="#C25BA3" transform="translate(46,53)"/>
<path d="M0 0 C0.99 0 1.98 0 3 0 C3.99 2.31 4.98 4.62 6 7 C3.03 8.65 0.06 10.3 -3 12 C-2.40075776 7.80530429 -1.42500059 3.99000166 0 0 Z " fill="#B960A3" transform="translate(22,36)"/>
<path d="M0 0 C0 0.66 0 1.32 0 2 C-0.66 2 -1.32 2 -2 2 C-2 3.32 -2 4.64 -2 6 C-4.31 6.66 -6.62 7.32 -9 8 C-8.66896829 4.93795671 -8.39949096 3.39949096 -6.1875 1.1875 C-4 0 -4 0 0 0 Z " fill="#525C85" transform="translate(91,26)"/>
<path d="M0 0 C0.99 0.33 1.98 0.66 3 1 C3 2.66666667 3 4.33333333 3 6 C1.35 6.33 -0.3 6.66 -2 7 C-2 7.99 -2 8.98 -2 10 C-2.99 10 -3.98 10 -5 10 C-5.33 8.35 -5.66 6.7 -6 5 C-4.02 4.67 -2.04 4.34 0 4 C0 2.68 0 1.36 0 0 Z " fill="#0E195B" transform="translate(89,28)"/>
<path d="M0 0 C0.99 0.66 1.98 1.32 3 2 C2.67 4.31 2.34 6.62 2 9 C1.01 9 0.02 9 -1 9 C-1 8.34 -1 7.68 -1 7 C-1.66 6.67 -2.32 6.34 -3 6 C-1.125 1.125 -1.125 1.125 0 0 Z " fill="#0E195A" transform="translate(49,27)"/>
<path d="M0 0 C1.60568666 0.28317926 3.20952047 0.57687791 4.8125 0.875 C6.15248047 1.11863281 6.15248047 1.11863281 7.51953125 1.3671875 C10 2 10 2 13 4 C10.32521756 5.6627026 8.0004856 6.99983813 5 8 C2.8125 7.0625 2.8125 7.0625 1 6 C1.66 5.67 2.32 5.34 3 5 C3.99 5.33 4.98 5.66 6 6 C5.67 5.01 5.34 4.02 5 3 C2.49552484 1.78130071 2.49552484 1.78130071 0 1 C0 0.67 0 0.34 0 0 Z " fill="#A64288" transform="translate(44,54)"/>
<path d="M0 0 C3.3 0 6.6 0 10 0 C9.67 0.66 9.34 1.32 9 2 C9.33 2.99 9.66 3.98 10 5 C8.35 5 6.7 5 5 5 C4.67 4.34 4.34 3.68 4 3 C4.66 3 5.32 3 6 3 C6 2.34 6 1.68 6 1 C3.69 1.33 1.38 1.66 -1 2 C-0.67 1.34 -0.34 0.68 0 0 Z " fill="#814D7F" transform="translate(66,37)"/>
<path d="M0 0 C0.33 0.66 0.66 1.32 1 2 C1.99 2.33 2.98 2.66 4 3 C4 3.66 4 4.32 4 5 C1.03 4.67 -1.94 4.34 -5 4 C-4.67 3.01 -4.34 2.02 -4 1 C-1.9375 0.3125 -1.9375 0.3125 0 0 Z " fill="#BD489C" transform="translate(57,57)"/>
<path d="M0 0 C0.99 0.66 1.98 1.32 3 2 C-0.93963055 6.55519783 -4.26928904 8.15451681 -10 10 C-10 9.34 -10 8.68 -10 8 C-7.03 6.68 -4.06 5.36 -1 4 C-1 3.01 -1 2.02 -1 1 C-0.67 0.67 -0.34 0.34 0 0 Z " fill="#A65691" transform="translate(90,52)"/>
<path d="M0 0 C2.54131358 2.30283254 4.07110295 4.67313793 5.6875 7.6875 C6.12449219 8.49574219 6.56148438 9.30398437 7.01171875 10.13671875 C7.33785156 10.75160156 7.66398438 11.36648437 8 12 C7.01 12 6.02 12 5 12 C4.16180842 10.37750059 3.3295884 8.75191503 2.5 7.125 C2.0359375 6.22007813 1.571875 5.31515625 1.09375 4.3828125 C0 2 0 2 0 0 Z " fill="#122350" transform="translate(0,69)"/>
<path d="M0 0 C0 1.65 0 3.3 0 5 C-1.65 5 -3.3 5 -5 5 C-5.33 4.01 -5.66 3.02 -6 2 C-3 0 -3 0 0 0 Z " fill="#8D93B0" transform="translate(46,28)"/>
<path d="M0 0 C1.46015291 0.28241641 2.91809793 0.57626614 4.375 0.875 C5.18710938 1.03742187 5.99921875 1.19984375 6.8359375 1.3671875 C9 2 9 2 11 4 C5.62694301 4.35233161 5.62694301 4.35233161 3 4 C1 2 1 2 0 0 Z " fill="#EB6A94" transform="translate(62,49)"/>
<path d="M0 0 C-1.32 0.33 -2.64 0.66 -4 1 C-4.33 2.32 -4.66 3.64 -5 5 C-6.32 4.34 -7.64 3.68 -9 3 C-9 2.34 -9 1.68 -9 1 C-5.8035914 -0.06546953 -3.34252724 -0.07427838 0 0 Z " fill="#E5759D" transform="translate(68,43)"/>
<path d="M0 0 C0.99 0 1.98 0 3 0 C2.125 3.875 2.125 3.875 1 5 C-1.33297433 5.04092937 -3.66705225 5.04241723 -6 5 C-2.25 3 -2.25 3 0 3 C0 2.01 0 1.02 0 0 Z " fill="#F3AF4C" transform="translate(70,62)"/>
<path d="M0 0 C-1.45255699 3.82946843 -3.42895561 5.12050295 -7 7 C-7 6.01 -7 5.02 -7 4 C-2.65714286 0 -2.65714286 0 0 0 Z " fill="#162550" transform="translate(102,56)"/>
<path d="M0 0 C2.9719385 1.12451727 5.33440687 2.22293791 8 4 C7.34 5.32 6.68 6.64 6 8 C4.02 5.36 2.04 2.72 0 0 Z " fill="#35508A" transform="translate(9,43)"/>
<path d="M0 0 C2.625 1.4375 2.625 1.4375 5 3 C4.67 3.99 4.34 4.98 4 6 C1.5625 5.1875 1.5625 5.1875 -1 4 C-1.33 3.01 -1.66 2.02 -2 1 C-1.34 0.67 -0.68 0.34 0 0 Z " fill="#AC799C" transform="translate(76,37)"/>
<path d="M0 0 C1.98 0.66 3.96 1.32 6 2 C5.67 2.99 5.34 3.98 5 5 C3.35 4.67 1.7 4.34 0 4 C0 2.68 0 1.36 0 0 Z " fill="#C0499E" transform="translate(45,55)"/>
<path d="M0 0 C-0.66 1.65 -1.32 3.3 -2 5 C-2.33 4.01 -2.66 3.02 -3 2 C-4.32 2.33 -5.64 2.66 -7 3 C-7.33 2.34 -7.66 1.68 -8 1 C-5.29120665 -0.35439668 -2.99066732 -0.06501451 0 0 Z " fill="#222D60" transform="translate(49,26)"/>
<path d="M0 0 C0.66 0 1.32 0 2 0 C1.6875 2.375 1.6875 2.375 1 5 C0.01 5.66 -0.98 6.32 -2 7 C-1.125 1.125 -1.125 1.125 0 0 Z " fill="#5B78B0" transform="translate(21,41)"/>
<path d="M0 0 C0 0.66 0 1.32 0 2 C-1.98 2.66 -3.96 3.32 -6 4 C-6.33 3.01 -6.66 2.02 -7 1 C-4 0 -4 0 0 0 Z " fill="#B586A9" transform="translate(72,38)"/>
</svg>
